# xmcd
# Copyright (C) 1995-1998 Ti Kan
#
# Track frame offsets:
#       150
#       17065
#       28234
#       52512
#       63816
#       75294
#       84615
#       101979
#       117009
#       132274
#       161865
#       178663
#       200045
#       212691
#
# Disc length: 3011 seconds
#
# Revision: 0
# Processed by: cddbd v1.5.2PL0 Copyright (c) Steve Scherf et al.
# Submitted via: CD-Transfer v1.0
#
DISCID=b60bc10e
DTITLE=Rodriguez, Sixto - Rodriguez
DYEAR=70
DGENRE=
TTITLE0=Sugar Man
TTITLE1=Crucify Your Mind
TTITLE2=Cause
TTITLE3=I Wonder
TTITLE4=Like Janis
TTITLE5=This Is Not A Song, It's An Outburst, Or The Establishment Blues
TTITLE6=Can't Get Away
TTITLE7=I Think Of You
TTITLE8=Inner City Blues
TTITLE9=Sandrevan Lullaby - Lifestyles
TTITLE10=Street Boy
TTITLE11=A Most Disgusting Song
TTITLE12=I'll Sleep Away
TTITLE13=Jane S. Piddy
EXTD=
EXTT0=
EXTT1=
EXTT2=
EXTT3=
EXTT4=
EXTT5=
EXTT6=
EXTT7=
EXTT8=
EXTT9=
EXTT10=
EXTT11=
EXTT12=
EXTT13=
PLAYORDER=
